# Blender v2.76 (sub 0) OBJ File: 'box.blend'
# www.blender.org
mtllib box.mtl
o BoxNode_BoxMesh
v 1.000000 -1.000000 -1.000000
v 1.000000 -1.000000 1.000000
v -1.000000 -1.000000 1.000000
v -1.000000 -1.000000 -1.000000
v 1.000000 1.000000 -0.999999
v 0.999999 1.000000 1.000001
v -1.000000 1.000000 1.000000
v -1.000000 1.000000 -1.000000
vt 0.999900 0.999900
vt 0.000100 0.999900
vt 0.000100 0.000100
vt 0.999900 0.000100
vt 0.500000 1.206965
vt -0.206965 0.500000
vt 0.500000 -0.206965
vt 1.206965 0.499999
vn 0.000000 -1.000000 0.000000
vn 0.000000 1.000000 0.000000
vn 1.000000 0.000000 0.000000
vn -0.000000 -0.000000 1.000000
vn -1.000000 -0.000000 -0.000000
vn 0.000000 0.000000 -1.000000
usemtl BoxMaterial
s off
f 1/1/1 2/2/1 3/3/1 4/4/1
f 5/5/2 8/6/2 7/7/2 6/8/2
f 1/4/3 5/1/3 6/2/3 2/3/3
f 2/4/4 6/1/4 7/2/4 3/3/4
f 3/2/5 7/3/5 8/4/5 4/1/5
f 5/4/6 1/1/6 4/2/6 8/3/6
o IcosphereNode_IcosphereMesh
v 0.000000 1.000000 0.000000
v 0.723607 1.552781 0.525725
v -0.276388 1.552780 0.850649
v -0.894426 1.552785 0.000000
v -0.276388 1.552780 -0.850649
v 0.723607 1.552781 -0.525725
v 0.276388 2.447220 0.850649
v -0.723607 2.447220 0.525725
v -0.723607 2.447220 -0.525725
v 0.276388 2.447220 -0.850649
v 0.894426 2.447216 0.000000
v 0.000000 3.000000 0.000000
v -0.162456 1.149346 0.499995
v 0.425323 1.149346 0.309011
v 0.262869 1.474263 0.809012
v 0.850648 1.474264 0.000000
v 0.425323 1.149346 -0.309011
v -0.525730 1.149348 0.000000
v -0.688189 1.474264 0.499997
v -0.162456 1.149346 -0.499995
v -0.688189 1.474264 -0.499997
v 0.262869 1.474263 -0.809012
v 0.951058 2.000000 0.309013
v 0.951058 2.000000 -0.309013
v 0.000000 2.000000 1.000000
v 0.587786 2.000000 0.809017
v -0.951058 2.000000 0.309013
v -0.587786 2.000000 0.809017
v -0.587786 2.000000 -0.809017
v -0.951058 2.000000 -0.309013
v 0.587786 2.000000 -0.809017
v 0.000000 2.000000 -1.000000
v 0.688189 2.525736 0.499997
v -0.262869 2.525738 0.809012
v -0.850648 2.525736 0.000000
v -0.262869 2.525738 -0.809012
v 0.688189 2.525736 -0.499997
v 0.162456 2.850655 0.499995
v 0.525730 2.850652 0.000000
v -0.425323 2.850654 0.309011
v -0.425323 2.850654 -0.309011
v 0.162456 2.850655 -0.499995
vt 0.128510 0.320824
vt 0.199924 0.359084
vt 0.132922 0.409461
vt 0.250957 0.392005
vt 0.271206 0.333570
vt 0.003432 0.359888
vt 0.083603 0.198504
vt 0.206871 0.269948
vt 0.309161 0.396196
vt 0.170416 0.473934
vt 0.208598 0.426941
vt 0.227357 0.482802
vt 0.119665 0.649270
vt 0.063326 0.531693
vt 0.176466 0.597974
vt 0.201993 0.807309
vt 0.142054 0.735677
vt 0.231052 0.729423
vt 0.300263 0.255686
vt 0.250574 0.134542
vt 0.418181 0.198334
vt 0.265946 0.442210
vt 0.191903 0.531859
vt 0.193098 0.666797
vt 0.295385 0.793046
vt 0.360203 0.327317
vt 0.275667 0.490578
vt 0.325793 0.465021
vt 0.310356 0.531136
vt 0.226592 0.572417
vt 0.251130 0.531497
vt 0.274902 0.580192
vt 0.251301 0.670987
vt 0.236313 0.620783
vt 0.293660 0.636051
vt 0.373747 0.742169
vt 0.302334 0.703908
vt 0.369336 0.653531
vt 0.382593 0.413723
vt 0.498826 0.358769
vt 0.438931 0.531301
vt 0.331843 0.589059
vt 0.498825 0.703106
vt 0.418654 0.864492
vt 0.251681 0.928454
vt 0.084076 0.864660
vt 0.003432 0.704225
vn 0.102400 -0.943500 0.315100
vn 0.700200 -0.661700 0.268000
vn -0.268000 -0.943500 0.194700
vn -0.268000 -0.943500 -0.194700
vn 0.102400 -0.943500 -0.315100
vn 0.905000 -0.330400 0.268000
vn 0.024700 -0.330400 0.943500
vn -0.889700 -0.330400 0.315100
vn -0.574600 -0.330400 -0.748800
vn 0.534600 -0.330400 -0.777900
vn 0.802600 -0.125600 0.583100
vn -0.306600 -0.125600 0.943500
vn -0.992100 -0.125600 0.000000
vn -0.306600 -0.125600 -0.943500
vn 0.802600 -0.125600 -0.583100
vn 0.408900 0.661700 0.628400
vn -0.471300 0.661700 0.583100
vn -0.700200 0.661700 -0.268000
vn 0.038500 0.661700 -0.748800
vn 0.724000 0.661700 -0.194700
vn 0.268000 0.943500 -0.194700
vn 0.491100 0.794700 -0.356800
vn 0.408900 0.661700 -0.628400
vn -0.102400 0.943500 -0.315100
vn -0.187600 0.794700 -0.577300
vn -0.471300 0.661700 -0.583100
vn -0.331300 0.943500 0.000000
vn -0.607100 0.794700 0.000000
vn -0.700200 0.661700 0.268000
vn -0.102400 0.943500 0.315100
vn -0.187600 0.794700 0.577300
vn 0.038500 0.661700 0.748800
vn 0.268000 0.943500 0.194700
vn 0.491100 0.794700 0.356800
vn 0.724000 0.661700 0.194700
vn 0.889700 0.330400 -0.315100
vn 0.794700 0.187600 -0.577300
vn 0.574600 0.330400 -0.748800
vn -0.024700 0.330400 -0.943500
vn -0.303500 0.187600 -0.934200
vn -0.534600 0.330400 -0.777900
vn -0.905000 0.330400 -0.268000
vn -0.982200 0.187600 0.000000
vn -0.905000 0.330400 0.268000
vn -0.534600 0.330400 0.777900
vn -0.303500 0.187600 0.934200
vn -0.024700 0.330400 0.943500
vn 0.574600 0.330400 0.748800
vn 0.794700 0.187600 0.577300
vn 0.889700 0.330400 0.315100
vn 0.306600 0.125600 -0.943500
vn 0.303500 -0.187600 -0.934200
vn 0.024700 -0.330400 -0.943500
vn -0.802600 0.125600 -0.583100
vn -0.794700 -0.187600 -0.577300
vn -0.889700 -0.330400 -0.315100
vn -0.802600 0.125600 0.583100
vn -0.794700 -0.187600 0.577300
vn -0.574600 -0.330400 0.748800
vn 0.306600 0.125600 0.943500
vn 0.303500 -0.187600 0.934200
vn 0.534600 -0.330400 0.777900
vn 0.992100 0.125600 0.000000
vn 0.982200 -0.187600 0.000000
vn 0.905000 -0.330400 -0.268000
vn 0.471300 -0.661700 -0.583100
vn 0.187600 -0.794700 -0.577300
vn -0.038500 -0.661700 -0.748800
vn -0.408900 -0.661700 -0.628400
vn -0.491100 -0.794700 -0.356800
vn -0.724000 -0.661700 -0.194700
vn -0.724000 -0.661700 0.194700
vn -0.491100 -0.794700 0.356800
vn -0.408900 -0.661700 0.628400
vn 0.700200 -0.661700 -0.268000
vn 0.607100 -0.794700 0.000000
vn 0.331300 -0.943500 0.000000
vn -0.038500 -0.661700 0.748800
vn 0.187600 -0.794700 0.577300
vn 0.471300 -0.661700 0.583100
usemtl IcosphereMaterial
s off
f 9/9/7 22/10/7 21/11/7
f 10/12/8 22/10/8 24/13/8
f 9/9/9 21/11/9 26/14/9
f 9/9/10 26/14/10 28/15/10
f 9/9/11 28/15/11 25/16/11
f 10/12/12 24/13/12 31/17/12
f 11/18/13 23/19/13 33/20/13
f 12/21/14 27/22/14 35/23/14
f 13/24/15 29/25/15 37/26/15
f 14/27/16 30/28/16 39/29/16
f 10/12/17 31/17/17 34/30/17
f 11/18/18 33/20/18 36/31/18
f 12/21/19 35/23/19 38/32/19
f 13/24/20 37/26/20 40/33/20
f 14/27/21 39/29/21 32/34/21
f 15/35/22 41/36/22 46/37/22
f 16/38/23 42/39/23 48/40/23
f 17/41/24 43/42/24 49/43/24
f 18/44/25 44/45/25 50/46/25
f 19/47/26 45/48/26 47/49/26
f 47/49/27 50/46/27 20/50/27
f 47/49/28 45/51/28 50/46/28
f 45/51/29 18/44/29 50/46/29
f 50/46/30 49/43/30 20/50/30
f 50/46/31 44/45/31 49/43/31
f 44/45/32 17/41/32 49/43/32
f 49/43/33 48/40/33 20/50/33
f 49/43/34 43/42/34 48/40/34
f 43/42/35 16/38/35 48/40/35
f 48/40/36 46/37/36 20/50/36
f 48/40/37 42/39/37 46/37/37
f 42/39/38 15/35/38 46/37/38
f 46/37/39 47/49/39 20/50/39
f 46/37/40 41/36/40 47/49/40
f 41/36/41 19/47/41 47/49/41
f 32/34/42 45/48/42 19/47/42
f 32/34/43 39/29/43 45/48/43
f 39/52/44 18/44/44 45/51/44
f 40/33/45 44/45/45 18/44/45
f 40/33/46 37/26/46 44/45/46
f 37/26/47 17/41/47 44/45/47
f 38/32/48 43/42/48 17/41/48
f 38/32/49 35/23/49 43/42/49
f 35/23/50 16/38/50 43/42/50
f 36/31/51 42/39/51 16/38/51
f 36/31/52 33/20/52 42/39/52
f 33/20/53 15/35/53 42/39/53
f 34/30/54 41/36/54 15/35/54
f 34/30/55 31/17/55 41/36/55
f 31/17/56 19/47/56 41/36/56
f 39/52/57 40/33/57 18/44/57
f 39/52/58 30/53/58 40/33/58
f 30/53/59 13/24/59 40/33/59
f 37/26/60 38/32/60 17/41/60
f 37/26/61 29/25/61 38/32/61
f 29/25/62 12/21/62 38/32/62
f 35/23/63 36/31/63 16/38/63
f 35/23/64 27/22/64 36/31/64
f 27/22/65 11/18/65 36/31/65
f 33/20/66 34/30/66 15/35/66
f 33/20/67 23/19/67 34/30/67
f 23/19/68 10/12/68 34/30/68
f 31/17/69 32/34/69 19/47/69
f 31/17/70 24/13/70 32/34/70
f 24/13/71 14/27/71 32/34/71
f 25/16/72 30/28/72 14/27/72
f 25/16/73 28/15/73 30/28/73
f 28/54/74 13/24/74 30/53/74
f 28/54/75 29/25/75 13/24/75
f 28/54/76 26/55/76 29/25/76
f 26/55/77 12/21/77 29/25/77
f 26/55/78 27/22/78 12/21/78
f 26/14/79 21/11/79 27/22/79
f 21/11/80 11/18/80 27/22/80
f 24/13/81 25/16/81 14/27/81
f 24/13/82 22/10/82 25/16/82
f 22/10/83 9/9/83 25/16/83
f 21/11/84 23/19/84 11/18/84
f 21/11/85 22/10/85 23/19/85
f 22/10/86 10/12/86 23/19/86
